<?xml version="1.0" encoding="UTF-8" standalone="no"?>
<!-- Created with Inkscape (http://www.inkscape.org/) -->

<svg
   xmlns:dc="http://purl.org/dc/elements/1.1/"
   xmlns:cc="http://creativecommons.org/ns#"
   xmlns:rdf="http://www.w3.org/1999/02/22-rdf-syntax-ns#"
   xmlns:svg="http://www.w3.org/2000/svg"
   xmlns="http://www.w3.org/2000/svg"
   xmlns:xlink="http://www.w3.org/1999/xlink"
   xmlns:sodipodi="http://sodipodi.sourceforge.net/DTD/sodipodi-0.dtd"
   xmlns:inkscape="http://www.inkscape.org/namespaces/inkscape"
   width="129.24448mm"
   height="20.360207mm"
   viewBox="0 0 129.24448 20.360206"
   version="1.1"
   id="svg8"
   sodipodi:docname="auvisus_logo.svg"
   inkscape:version="0.92.4 (5da689c313, 2019-01-14)">
  <defs
     id="defs2">
    <linearGradient
       xlink:href="#linearGradient1079"
       gradientUnits="userSpaceOnUse"
       gradientTransform="matrix(1.9228,0,0,1.9228,-1.5602,-88.286)"
       y2="97.532997"
       y1="97.532997"
       x2="55.984001"
       x1="53.694"
       id="linearGradient1126-6" />
    <linearGradient
       id="linearGradient1079">
      <stop
         id="stop107"
         offset="0"
         stop-color="#7030a0" />
      <stop
         id="stop109"
         offset="1"
         stop-color="#0b93d2" />
    </linearGradient>
    <linearGradient
       xlink:href="#linearGradient1079"
       gradientUnits="userSpaceOnUse"
       gradientTransform="matrix(1.9228,0,0,1.9228,-1.5447,-88.376)"
       y2="97.580002"
       y1="97.646004"
       x2="61.158001"
       x1="51.876999"
       id="linearGradient1118-3" />
    <clipPath
       clipPathUnits="userSpaceOnUse"
       id="clipPath183">
      <g
         inkscape:label="Clip"
         id="use185">
        <g
           style="fill:#ffffff"
           id="g4711">
          <rect
             x="33.751999"
             y="88.679001"
             width="129.64999"
             height="43.674999"
             id="rect4709" />
        </g>
      </g>
    </clipPath>
  </defs>
  <sodipodi:namedview
     id="base"
     pagecolor="#ffffff"
     bordercolor="#666666"
     borderopacity="1.0"
     inkscape:pageopacity="0.0"
     inkscape:pageshadow="2"
     inkscape:zoom="1.4"
     inkscape:cx="142.69647"
     inkscape:cy="156.20338"
     inkscape:document-units="mm"
     inkscape:current-layer="g147"
     showgrid="false"
     inkscape:window-width="1920"
     inkscape:window-height="1017"
     inkscape:window-x="-8"
     inkscape:window-y="-8"
     inkscape:window-maximized="1"
     inkscape:pagecheckerboard="true" />
  <metadata
     id="metadata5">
    <rdf:RDF>
      <cc:Work
         rdf:about="">
        <dc:format>image/svg+xml</dc:format>
        <dc:type
           rdf:resource="http://purl.org/dc/dcmitype/StillImage" />
        <dc:title></dc:title>
      </cc:Work>
    </rdf:RDF>
  </metadata>
  <g
     inkscape:label="Ebene 1"
     inkscape:groupmode="layer"
     id="layer1"
     transform="translate(-66.17397,-113.87395)">
    <g
       id="g147"
       transform="translate(32.159265,2.8580701)">
      <g
         id="g143"
         transform="translate(-67.324,-49.145)"
         style="fill:#262626;fill-opacity:1">
        <g
           id="g139"
           aria-label="auvisus"
           transform="matrix(0.51982,0,0,0.51982,93.439,151.85)"
           style="fill:#262626;fill-opacity:1">
          <path
             id="path127"
             d="m 35.239,15.988 c -10.763,0 -20.042,8.7469 -20.042,19.602 0,10.763 8.7416,19.504 19.504,19.504 6.2419,0 12.158,-3.3928 15.125,-7.2218 0.05203,-0.0676 0.12679,-0.08302 0.19455,-0.06353 0.06775,0.01949 0.06829,0.03146 0.13301,0.15881 0.48028,1.6978 0.89798,2.8955 1.2904,3.8999 0.09917,0.22688 0.2126,0.29118 0.37018,0.3459 0.17689,0.03951 0.29548,0.04728 0.50543,0.04728 h 0.51773 c 0.73435,0 0.85336,-0.05894 1.0507,-0.19429 0.11144,-0.09016 0.17031,-0.20276 0.22971,-0.30936 0.0594,-0.1066 0.08735,-0.24402 0.08735,-0.43674 v -32.11 c 0,-0.19983 -0.02393,-0.34703 -0.07146,-0.46255 -0.04755,-0.11551 -0.1212,-0.19804 -0.21043,-0.26006 -0.18319,-0.12732 -0.55196,-0.20688 -1.0183,-0.23114 -0.32482,-0.01936 -0.90037,0.09298 -1.0536,0.17398 -0.15483,0.05142 -0.26921,0.22244 -0.29042,0.33111 l -1.0144,4.157 c -1.3e-5,6.78e-4 -1.3e-5,0.0013 0,0.002 -0.03076,0.15233 -0.21611,0.20103 -0.31763,0.08338 -2.9783,-3.4587 -8.168,-7.0157 -14.99,-7.0157 z m -0.53798,4.29 c 9.4078,0 15.214,7.5594 15.214,15.312 0,7.1729 -5.5125,15.214 -15.214,15.214 -8.0519,0 -15.214,-6.5791 -15.214,-15.214 0,-8.2405 6.3888,-15.312 15.214,-15.312 z"
             inkscape:connector-curvature="0"
             style="fill:#262626;fill-opacity:1;stroke-width:3.03060007" />
          <path
             id="path129"
             d="m 66.238,16.627 c -0.37229,0 -0.7065,0.03924 -0.92578,0.16353 -0.10763,0.06101 -0.19448,0.13664 -0.25391,0.24939 -0.05943,0.11275 -0.08984,0.2603 -0.08984,0.46198 v 22.543 c 0,4.8519 1.6984,8.6188 4.4551,11.184 2.7567,2.565 6.5791,3.9269 10.84,3.9269 5.0946,0 9.4039,-2.8739 11.664,-5.6338 0.0905,-0.10974 0.25677,-0.06092 0.28125,0.08177 -1.7e-5,6.98e-4 -1.7e-5,0.0014 0,0.0021 l 0.70508,1.9657 c 2.47e-4,0.0034 9.19e-4,0.0069 0.002,0.01021 0.08008,0.24974 0.23863,0.40445 0.48047,0.509 0.24381,0.1054 0.57137,0.14922 0.94141,0.14922 0.41312,0 0.72314,-0.07038 0.91797,-0.21873 0.19264,-0.14669 0.30274,-0.37303 0.30274,-0.78701 v -33.703 c 0,-0.20154 -0.02774,-0.34757 -0.08789,-0.45994 -0.06015,-0.11236 -0.15227,-0.18794 -0.26562,-0.24939 -0.23094,-0.12519 -0.59064,-0.16558 -1.0117,-0.16558 h -1.5254 c -0.42108,0 -0.78077,0.04039 -1.0117,0.16558 -0.11335,0.06145 -0.20547,0.13703 -0.26562,0.24939 -0.06015,0.11237 -0.08789,0.2584 -0.08789,0.45994 v 19.918 c 0,3.1303 -0.91373,6.434 -2.752,8.9658 -1.8381,2.5317 -4.6126,4.2866 -8.2871,4.2866 -3.2741,0 -6.0596,-0.95988 -8.0273,-2.778 -1.9676,-1.8181 -3.1074,-4.4934 -3.1074,-7.8783 v -22.543 c 0,-0.20169 -0.03041,-0.34924 -0.08984,-0.46198 -0.05943,-0.11274 -0.14628,-0.18838 -0.25391,-0.24939 -0.21928,-0.1243 -0.5535,-0.16353 -0.92578,-0.16353 z"
             inkscape:connector-curvature="0"
             style="fill:#262626;fill-opacity:1;stroke-width:3.05040002" />
          <path
             id="path131"
             d="m 106.56,16.649 c -0.48552,0 -0.89247,0.20689 -1.125,0.54992 -0.23208,0.34236 -0.30131,0.83269 -0.0762,1.4453 l 14.215,35.587 c 1.3e-4,6.5e-5 4e-4,0.0057 0,0.0041 6.2e-4,0.0014 10e-4,0.0028 0.002,0.0041 0.0836,0.26223 0.24045,0.43233 0.45703,0.54583 0.2186,0.11457 0.50293,0.16763 0.82227,0.16763 0.31941,0 0.61371,-0.05428 0.84179,-0.16968 0.22614,-0.11443 0.39002,-0.28429 0.47266,-0.54379 7.1e-4,-0.0014 0.001,-0.0028 0.002,-0.0041 -1.9e-4,7.61e-4 6e-5,-0.0024 0,-0.0021 l 0.004,-0.0082 c 4.2e-4,-0.0016 -4.9e-4,-8.3e-5 0,-0.0021 l 14.307,-35.566 c 1e-5,-6.97e-4 1e-5,-0.0014 0,-0.0021 0.22513,-0.61269 0.15587,-1.1034 -0.0762,-1.4453 -0.23252,-0.34256 -0.63951,-0.54788 -1.125,-0.54788 h -1.7188 c -0.49318,0 -0.75404,0.15606 -0.92969,0.36185 -0.17789,0.20838 -0.26884,0.48476 -0.36719,0.74209 l -11.26,27.585 c -10e-6,6.98e-4 -10e-6,0.0014 0,0.0021 -0.0252,0.06488 -0.0778,0.09199 -0.13282,0.09199 -0.055,0 -0.1076,-0.02711 -0.13281,-0.09199 1e-5,-6.98e-4 1e-5,-0.0014 0,-0.0021 l -11.164,-27.597 v -0.0021 c -0.0981,-0.25684 -0.18972,-0.53213 -0.36719,-0.74004 -0.17566,-0.20578 -0.4365,-0.36184 -0.92969,-0.36184 z"
             inkscape:connector-curvature="0"
             style="fill:#262626;fill-opacity:1;stroke-width:3.05049992" />
          <path
             id="path133"
             d="m 147.09,16.561 c -0.42146,0 -0.77756,0.04022 -1.0078,0.15832 -0.10999,0.05641 -0.20295,0.1249 -0.26367,0.23169 -0.0607,0.10679 -0.0879,0.24424 -0.0879,0.43249 v 34.113 c 0,0.18825 0.0272,0.32565 0.0879,0.43249 0.0607,0.10684 0.15365,0.17546 0.26367,0.23169 0.23039,0.11777 0.58636,0.15639 1.0078,0.15639 h 1.5273 c 0.42144,0 0.77875,-0.03852 1.0098,-0.15639 0.11032,-0.05631 0.20301,-0.12482 0.26367,-0.23169 0.0607,-0.10687 0.0879,-0.24436 0.0879,-0.43249 v -34.113 c 0,-0.18812 -0.0272,-0.32566 -0.0879,-0.43249 -0.0607,-0.10683 -0.15337,-0.17522 -0.26367,-0.23169 -0.23088,-0.11821 -0.58832,-0.15832 -1.0098,-0.15832 z"
             inkscape:connector-curvature="0"
             style="fill:#262626;fill-opacity:1;stroke-width:2.96460009" />
          <path
             id="path135"
             d="m 223.49,16.651 c -0.42137,0 -0.77782,0.04096 -1.0059,0.16177 -0.11043,0.05851 -0.20184,0.12918 -0.26172,0.23861 -0.0599,0.10943 -0.0879,0.2515 -0.0879,0.4489 v 19.885 c 0,3.0986 -0.91406,6.3683 -2.7539,8.875 -1.8397,2.5065 -4.6154,4.2423 -8.293,4.2423 -3.2761,0 -6.0633,-0.94544 -8.0332,-2.746 -1.9698,-1.8005 -3.1094,-4.4525 -3.1094,-7.8032 v -22.431 c 0,-0.19747 -0.0291,-0.34048 -0.0879,-0.45093 -0.0588,-0.11044 -0.14671,-0.18364 -0.25195,-0.24265 -0.21709,-0.12173 -0.54981,-0.16379 -0.92188,-0.16379 h -1.623 c -0.37208,0 -0.70343,0.04216 -0.91992,0.16379 -0.10494,0.05896 -0.19305,0.13224 -0.25195,0.24265 -0.0589,0.11041 -0.0879,0.25334 -0.0879,0.45093 v 22.431 c 0,4.7968 1.6987,8.5196 4.4531,11.055 2.7545,2.5352 6.5753,3.8844 10.834,3.8844 5.091,0 9.3999,-2.8431 11.658,-5.5709 0.0966,-0.11694 0.2725,-0.06849 0.29883,0.08291 -5e-5,0.0014 -5e-5,0.0028 0,0.004 l 0.70703,2.2403 c 6.2e-4,0.0014 0.001,0.0028 0.002,0.004 0.0768,0.22665 0.24645,0.36361 0.50977,0.45295 0.26947,0.09141 0.62595,0.12335 1,0.12335 0.4167,0 0.6963,-0.05853 0.85937,-0.18401 0.0793,-0.06099 0.14501,-0.14467 0.1875,-0.26287 0.0425,-0.1182 0.0645,-0.27011 0.0645,-0.47721 v -33.805 c 0,-0.19728 -0.0281,-0.33945 -0.0879,-0.4489 -0.0598,-0.10946 -0.15099,-0.18004 -0.26172,-0.23861 -0.22864,-0.12092 -0.58646,-0.16177 -1.0078,-0.16177 z"
             inkscape:connector-curvature="0"
             style="fill:#262626;fill-opacity:1;stroke-width:3.03390002" />
          <path
             id="path137"
             d="m 250.91,16.674 c -3.5104,0 -6.3017,0.92185 -8.2129,2.6211 -1.9085,1.6969 -2.9531,3.9096 -2.9531,7.0723 0,3.4033 1.0396,5.7593 2.8359,7.3262 1.7976,1.5679 4.3724,2.6108 7.4336,3.8496 a 0.054136,0.054136 0 0 1 0.002,0.002 0.054136,0.054136 0 0 1 0.004,0.002 c 4.6e-4,2.11e-4 0.001,-3.44e-4 0.002,0 a 0.054136,0.054136 0 0 1 0.004,0.002 c 2.5e-4,5.2e-5 0.001,0.0018 0.002,0.002 0.001,2.78e-4 0.002,-3.96e-4 0.004,0 9.4e-4,4.52e-4 0.002,10e-4 0.004,0.002 a 0.054136,0.054136 0 0 1 0.002,0 0.054136,0.054136 0 0 1 0.004,0 c 1.1185,0.47037 3.1237,1.0942 4.8613,2.1543 0.86911,0.53022 1.6766,1.1084 2.2676,1.8379 0.591,0.7295 0.96484,1.6125 0.96484,2.7422 0,2.3752 -0.92362,4.0043 -2.2656,5.0195 -1.3426,1.0156 -3.0934,1.4258 -4.7676,1.4258 -3.2684,0 -6.2532,-2.2033 -8.8262,-4.6094 -9.1e-4,-7.84e-4 -0.003,-0.0028 -0.004,-0.0039 l -0.012,-0.0078 a 0.054136,0.054136 0 0 1 -0.004,-0.002 l -0.48243,-0.38477 a 0.054136,0.054136 0 0 1 -0.006,-0.0039 c -0.004,-0.0039 -0.005,-0.0061 -0.002,-0.0039 a 0.054136,0.054136 0 0 1 -0.002,0 l -0.002,-0.002 a 0.054136,0.054136 0 0 1 -0.008,-0.0059 c -0.10087,-0.10093 -0.19557,-0.16793 -0.29492,-0.19922 -0.1011,-0.03184 -0.20686,-0.0276 -0.31445,-0.002 -0.22398,0.05355 -0.47872,0.22745 -0.75196,0.50391 l -1.3203,1.334 c -0.2271,0.22977 -0.40989,0.48137 -0.47265,0.72266 -0.0303,0.11637 -0.0392,0.23476 -0.006,0.35352 0.0333,0.11634 0.10464,0.23405 0.22461,0.35742 -7.9e-4,-5.53e-4 0.002,0.0019 0.006,0.0039 a 0.054136,0.054136 0 0 1 0.008,0.0059 l 0.49804,0.42774 c 5.1e-4,2.61e-4 0.002,-6e-5 0.002,0 8.8e-4,3.42e-4 0.002,0.0019 0.002,0.002 v 0.002 h 0.002 a 0.054136,0.054136 0 0 1 0.004,0.002 0.054136,0.054136 0 0 1 0.002,0.002 0.054136,0.054136 0 0 1 0.002,0 0.054136,0.054136 0 0 1 0.002,0.0039 0.054136,0.054136 0 0 1 0.004,0 v 0.002 c 3.1836,2.8421 7.0962,5.6855 11.752,5.6855 3.319,0 6.1317,-0.96622 8.1152,-2.7734 1.9834,-1.8071 3.1445,-4.4553 3.1445,-7.8555 0,-3.1523 -1.3579,-5.0729 -3.3633,-6.748 -2.0036,-1.6737 -4.6503,-2.8139 -7.1934,-3.8145 a 0.054136,0.054136 0 0 1 -0.002,-0.002 c -6.8e-4,-2.96e-4 -0.005,-9.75e-4 -0.01,-0.002 -0.005,-0.0011 -0.008,-0.0017 -0.0137,-0.0039 -4.4e-4,-1.67e-4 -0.001,-0.0015 -0.002,-0.002 -0.002,-6.99e-4 -0.004,-0.0013 -0.006,-0.002 -1e-5,-7e-6 -0.001,-0.0014 -0.002,-0.002 -1.3074,-0.56431 -3.235,-1.1805 -4.8516,-2.2227 -1.6291,-1.0503 -2.9453,-2.823 -2.9453,-5.1211 0,-0.86684 0.0682,-2.0166 0.98633,-3.2305 0.91528,-1.21 2.6696,-2.1836 5.9512,-2.1836 2.8705,0 5.7992,1.3859 7.4238,2.4473 l 0.002,0.002 c 10e-4,7.37e-4 0.003,0.0012 0.004,0.002 6.3e-4,3.84e-4 0.002,5.2e-5 0.002,0 0.23228,0.14099 0.40934,0.22429 0.58203,0.20703 0.16608,-0.01659 0.36641,-0.13374 0.63282,-0.49023 a 0.054136,0.054136 0 0 1 0.008,-0.0078 l 1.2109,-1.7852 0.004,-0.0078 c 6.5e-4,-0.0015 10e-4,-0.0021 0.002,-0.0039 a 0.054136,0.054136 0 0 1 0.004,-0.0078 v -0.002 a 0.054136,0.054136 0 0 1 0.006,-0.01172 c 0.17911,-0.32055 0.29596,-0.55875 0.3086,-0.74023 0.006,-0.08241 -0.004,-0.16809 -0.0508,-0.24414 -0.0476,-0.07818 -0.12409,-0.14617 -0.25195,-0.23242 l -0.28516,-0.19141 c -1.9666,-1.3262 -5.4973,-3.2129 -9.6016,-3.2129 z m 0.88867,16.973 -0.008,0.02539 c 0.001,-0.0016 0.006,-0.0059 0.006,-0.0059 2e-5,0 7.2e-4,-0.01082 0.002,-0.01953 z"
             transform="matrix(1.0621,0,0,1.0055,-14.824,-0.23319)"
             inkscape:connector-curvature="0"
             style="fill:#262626;fill-opacity:1;stroke-width:2.96399999" />
        </g>
        <path
           id="path141"
           d="m 183.2,160.48 c -1.8221,0 -3.2685,0.4806 -4.2578,1.3613 -0.98876,0.8802 -1.5293,2.0235 -1.5293,3.666 0,1.7682 0.54015,3.0484 1.4688,3.8594 0.92896,0.81134 2.2619,1.3547 3.8496,1.998 a 0.049084,0.049084 0 0 1 0.004,0.002 h 0.002 c 5.8e-4,2.3e-4 0.001,-2.4e-4 0.002,0 8.2e-4,3.3e-4 0.001,0.002 0.002,0.002 a 0.049084,0.049084 0 0 1 0.002,0 0.049084,0.049084 0 0 1 0.01,0.004 0.049084,0.049084 0 0 1 0.002,0 c 5.7e-4,2.8e-4 9.5e-4,0.001 0.002,0.002 0.58,0.24399 1.6254,0.5697 2.5312,1.123 0.45223,0.27625 0.87375,0.56169 1.1836,0.92968 0.30984,0.368 0.50586,0.81923 0.50586,1.4121 0,1.2423 -0.48258,2.1004 -1.1855,2.6328 -0.70313,0.53259 -1.618,0.74609 -2.4922,0.74609 -1.7061,0 -3.26,-1.1491 -4.5977,-2.4004 l -0.008,-0.008 c 2.2e-4,1.7e-4 -3.6e-4,0.002 0,0.002 l -0.002,-0.002 -0.004,-0.002 a 0.049084,0.049084 0 0 1 -0.004,-0.002 l -0.24414,-0.19726 c -10e-4,-6.9e-4 -0.003,-0.002 -0.006,-0.004 a 0.049084,0.049084 0 0 1 -0.002,-0.002 c -0.001,-7.3e-4 -0.001,-0.001 -0.002,-0.002 a 0.049084,0.049084 0 0 1 -0.002,-0.002 h -0.002 a 0.049084,0.049084 0 0 1 -0.004,-0.004 0.049084,0.049084 0 0 1 -0.01,-0.0215 v 0.0156 c -0.0471,-0.0453 -0.0922,-0.0778 -0.13672,-0.0918 -0.0481,-0.0152 -0.097,-0.0147 -0.15039,-0.002 -0.11035,0.0265 -0.24019,0.11531 -0.38086,0.25782 l -0.6875,0.69726 c -0.11665,0.11818 -0.20908,0.24534 -0.24023,0.36524 -0.0153,0.0588 -0.02,0.11474 -0.004,0.17187 0.0163,0.0575 0.0542,0.11564 0.11719,0.17969 4e-4,4e-4 -4e-4,0.002 0,0.002 0.001,9.1e-4 0.004,0.002 0.004,0.002 l 0.25,0.21679 h 0.002 a 0.049084,0.049084 0 0 1 0.002,0.002 0.049084,0.049084 0 0 1 0.004,0.004 0.049084,0.049084 0 0 1 0.008,0.004 l 0.004,0.004 c 1.6543,1.4785 3.6836,2.9531 6.0957,2.9531 1.7222,0 3.1799,-0.50243 4.207,-1.4394 1.0271,-0.93698 1.6289,-2.3102 1.6289,-4.0762 0,-1.6356 -0.70079,-2.5684 -1.7422,-3.4394 -1.0381,-0.8683 -2.4129,-1.4617 -3.7344,-1.9824 0.006,0.002 -0.002,-0.001 -0.006,-0.002 h -0.004 c -0.003,-0.001 -0.006,-0.003 -0.008,-0.004 -4.7e-4,-2.1e-4 -0.001,2e-4 -0.002,0 -1.3e-4,-6e-5 -0.002,-7.5e-4 -0.004,-0.002 -6.7e-4,-2.9e-4 -0.001,-0.002 -0.002,-0.002 -0.67816,-0.29272 -1.6788,-0.6123 -2.5215,-1.1562 -0.85338,-0.55087 -1.541,-1.5394 -1.541,-2.7441 0,-0.45242 0.0346,-1.0565 0.51563,-1.6934 0.48055,-0.63611 1.4023,-1.1465 3.1133,-1.1465 1.5015,0 3.0298,0.72457 3.877,1.2793 a 0.049084,0.049084 0 0 1 0.008,0.006 l 0.002,0.002 c 0.11412,0.0686 0.19976,0.10561 0.27929,0.0976 0.0789,-0.008 0.1776,-0.0627 0.31446,-0.24609 a 0.049084,0.049084 0 0 1 0,-0.002 c 1.7e-4,-2.2e-4 0.003,-7.7e-4 0.004,-0.002 l 0.004,-0.004 0.62305,-0.92188 c 1.4e-4,-4.6e-4 -2.6e-4,-0.001 0,-0.002 l 0.004,-0.006 h -0.002 c -7.5e-4,0.002 0.003,-0.002 0.004,-0.004 5.2e-4,-0.002 -8.5e-4,-3e-4 0.002,-0.006 a 0.049084,0.049084 0 0 1 0,-0.002 c 0.0929,-0.16663 0.15213,-0.28961 0.1582,-0.37695 0.003,-0.0414 -7.7e-4,-0.0814 -0.0215,-0.11524 -0.022,-0.0362 -0.061,-0.0687 -0.12696,-0.11328 l -0.14843,-0.0996 c -1.0209,-0.68967 -2.8522,-1.6719 -4.9805,-1.6719 z m 0.45703,8.8555 -0.004,0.0215 -0.006,0.0234 0.0137,-0.0137 c 3e-5,-1e-5 -0.002,-0.0169 -0.004,-0.0312 z"
           transform="matrix(1.0621,0,0,1.0031,-10.977,-0.51065)"
           inkscape:connector-curvature="0"
           style="fill:#262626;fill-opacity:1" />
      </g>
    </g>
  </g>
</svg>
